<svg xmlns="http://www.w3.org/2000/svg" xmlns:xlink="http://www.w3.org/1999/xlink" viewBox="0 0 221.35 99.3"><defs><style>.cls-1{fill:#0078ae;}.cls-2{fill:#bfd730;}.cls-3{fill:url(#radial-gradient);}.cls-4{fill:#c1cd23;fill-rule:evenodd;}.cls-5{fill:#fff;}</style><radialGradient id="radial-gradient" cx="42.82" cy="37.73" fx="58.82421579547636" fy="30.959438448194277" r="34.74" gradientUnits="userSpaceOnUse"><stop offset="0.62" stop-color="#fff"></stop><stop offset="0.7" stop-color="#fbfdfe"></stop><stop offset="0.78" stop-color="#eff5fa"></stop><stop offset="0.86" stop-color="#dbeaf4"></stop><stop offset="0.93" stop-color="#bfd9eb"></stop><stop offset="1" stop-color="#a0c7e1"></stop></radialGradient></defs><title>Datový zdroj 2</title><g id="Vrstva_2" data-name="Vrstva 2"><g id="odlesky"><path class="cls-1" d="M95.42,79.35h1.51V89.42h6v1.27H95.42Z"></path><path class="cls-1" d="M114.4,79.35h1.51V90.68H114.4Z"></path><path class="cls-1" d="M128.54,79.35h4.11a6.77,6.77,0,0,1,3,.41A2.69,2.69,0,0,1,137,82.13a2.62,2.62,0,0,1-1.68,2.54v0a2.6,2.6,0,0,1,2.16,2.73A3.22,3.22,0,0,1,134,90.68h-5.47ZM130,84.23h3c1.71,0,2.41-.62,2.41-1.81,0-1.57-1.11-1.79-2.41-1.79h-3Zm0,5.19h3.78a1.94,1.94,0,0,0,2.13-2c0-1.48-1.19-1.89-2.46-1.89H130Z"></path><path class="cls-1" d="M149.54,79.35h7.82v1.27H151v3.6h5.89V85.5H151v3.92h6.36v1.27h-7.87Z"></path><path class="cls-1" d="M169.26,79.35h5.33c2.13,0,3.45,1.16,3.45,3a2.72,2.72,0,0,1-2,2.87v0c1.32.25,1.59,1.22,1.7,2.33s0,2.35.67,3.13h-1.68c-.43-.46-.19-1.68-.41-2.79s-.43-2-1.89-2h-3.68v4.84h-1.51Zm4.65,5.22c1.41,0,2.62-.36,2.62-2a1.79,1.79,0,0,0-2-1.94h-3.74v4Z"></path><path class="cls-1" d="M190.34,79.35h7.82v1.27h-6.32v3.6h5.89V85.5h-5.89v3.92h6.36v1.27h-7.87Z"></path><path class="cls-1" d="M217.9,82.77a3,3,0,0,0-3.17-2.41c-2.7,0-3.84,2.22-3.84,4.59,0,2.59,1.14,4.75,3.86,4.75A3.21,3.21,0,0,0,218,86.42h1.51a4.61,4.61,0,0,1-4.9,4.54c-3.52,0-5.24-2.6-5.24-5.9s1.87-6,5.36-6c2.36,0,4.31,1.27,4.66,3.68Z"></path><path class="cls-2" d="M98.16,47.84h4.53v2.29H98.16v15c0,1.77.26,2.8,2.2,2.93a20.52,20.52,0,0,0,2.33-.13v2.33c-.82,0-1.59.09-2.41.09-3.62,0-4.87-1.21-4.83-5V50.13H91.56V47.84h3.88v-6.1h2.71Z"></path><path class="cls-2" d="M106.76,59.69c0,4,2.11,8.75,7.32,8.75,4,0,6.12-2.33,7-5.69h2.72c-1.16,5-4.1,8-9.7,8-7.07,0-10-5.43-10-11.77,0-5.86,3-11.77,10-11.77s10,6.25,9.78,12.5Zm14.4-2.28c-.13-4.09-2.67-7.93-7.07-7.93s-6.89,3.88-7.32,7.93Z"></path><path class="cls-2" d="M127.44,41.74h2.71V70.09h-2.71Z"></path><path class="cls-2" d="M136.66,59.69c0,4,2.11,8.75,7.33,8.75,4,0,6.12-2.33,7-5.69h2.72c-1.16,5-4.09,8-9.7,8-7.07,0-10-5.43-10-11.77,0-5.86,3-11.77,10-11.77s10,6.25,9.78,12.5Zm14.4-2.28c-.13-4.09-2.67-7.93-7.07-7.93s-6.9,3.88-7.33,7.93Z"></path><path class="cls-2" d="M154.09,47.84h3l7,19.53h.08l6.9-19.53h2.8l-8.32,22.25h-2.89Z"></path><path class="cls-2" d="M176.38,47.84h2.72V70.09h-2.72Z"></path><path class="cls-2" d="M185.14,67.8h15.3v2.29H181.86v-2.2l14.53-17.76H182.86V47.84h17v1.94Z"></path><path class="cls-2" d="M204.22,59.69c0,4,2.12,8.75,7.33,8.75,4,0,6.12-2.33,7-5.69h2.72c-1.16,5-4.1,8-9.7,8-7.07,0-10-5.43-10-11.77,0-5.86,3-11.77,10-11.77s10,6.25,9.78,12.5Zm14.4-2.28c-.13-4.09-2.67-7.93-7.07-7.93s-6.9,3.88-7.33,7.93Z"></path><path class="cls-1" d="M108.79,15.84h0a7.8,7.8,0,0,0-6.64-3.32c-6.55,0-9.87,5.56-9.87,11.55,0,6.16,3.28,11.94,10,11.94,2.85,0,5.35-1,6.77-3.45h.09v2.85h5.82V7.06l-6.12,1.17Zm-5,15.56c-3.79,0-5.39-3.66-5.39-7.16,0-3.66,1.38-7.11,5.39-7.11S109,20.58,109,24.2,107.79,31.4,103.74,31.4Zm29-18V10.75l-4.81.57-4.81-.57v2.88a11.4,11.4,0,0,0-6.31,10.66c0,6.9,4.35,11.72,11.38,11.72,5,0,8.71-2.24,10.43-7.5H133.2c-.39,1.38-2.37,2.89-4.83,2.89-3.4,0-5.3-1.77-5.47-5.65H139C139.31,20.45,137.18,15.45,132.7,13.44Zm-9.8,8.43A4.82,4.82,0,0,1,128,17.13c3,0,4.31,1.64,4.87,4.74ZM148.33,7.06l-6.12,1.17v4.88H138.5v4.09h3.71V30.36c0,4.44,3.27,5.3,7,5.3a23.75,23.75,0,0,0,3.58-.21V30.66a9.32,9.32,0,0,1-1.9.17c-2.07,0-2.59-.52-2.59-2.59v-11h4.48V13.12h-4.48ZM166.74,22c-3.49-.82-6.94-1.12-6.94-3.32,0-1.81,2-2.07,3.41-2.07,2.2,0,4,.65,4.18,3h5.82c-.47-5.48-5-7.11-9.83-7.11s-9.7,1.47-9.7,7.16c0,3.92,3.54,5.17,7.07,5.95,4.4.95,6.94,1.59,6.94,3.45,0,2.16-2.24,2.85-4,2.85-2.41,0-4.66-1.08-4.7-3.75h-5.82c.26,5.91,5.3,7.85,10.47,7.85s10.17-1.9,10.17-7.76C173.81,24.11,170.32,22.82,166.74,22Zm30.45-8.88H190l-7.71,8V7.06l-6.12,1.17V35.41h6.12V27.73l2.37-2.28,6.12,10h7.42l-9.35-14.1Zm21.08,17.33V18.85c0-3.32-2.07-5-4.69-5.73L213,9.8l-9.14,1.71.29,1.54c-3.25.87-5.85,2.91-6.1,6.93h6.12c.22-2.41,1.72-3.36,4.05-3.36,2.16,0,4,.39,4,3s-3.49,2.37-7.24,2.93-7.59,1.72-7.59,6.77c0,4.57,3.37,6.68,7.59,6.68a10.21,10.21,0,0,0,7.5-2.76,9.1,9.1,0,0,0,.43,2.16h6.21C218.49,34.5,218.28,32.48,218.28,30.45Zm-6.12-3.66c0,1.34-.17,5.13-5,5.13-2,0-3.75-.56-3.75-2.85s1.72-2.89,3.62-3.27,4.05-.39,5.09-1.29Z"></path><path class="cls-1" d="M81.29,40.82A40.64,40.64,0,1,0,32.16,80.74l-.68,12.2-7.54,2.64,1.86,2.48,8.36-3.88.39-13a40.85,40.85,0,0,0,10.25.24l.4,14.15,8.08,3.73,2.07-2.49-7.87-2.69-.64-13A40.77,40.77,0,0,0,81.29,40.82Z"></path><ellipse class="cls-3" cx="42.82" cy="37.73" rx="34.67" ry="34.82"></ellipse><path class="cls-4" d="M71.06,23.25C65.93,13.4,54.71,9,46.08,13.52s-11.49,16.19-6.36,26,16.35,14.22,25,9.73S76.19,33.11,71.06,23.25Z"></path><path class="cls-1" d="M63.79,27.66c-2.06-4-6.54-5.74-10-4s-4.54,6.47-2.48,10.43,6.54,5.74,10,4S65.85,31.61,63.79,27.66Z"></path><ellipse class="cls-5" cx="50.99" cy="31.38" rx="3.78" ry="1.2" transform="translate(-2.98 5.46) rotate(-5.95)"></ellipse></g></g></svg>