<svg width="20" height="20" viewBox="0 0 20 20" fill="none" xmlns="http://www.w3.org/2000/svg">
<path d="M2.1875 2.5H17.8125C19.02 2.5 20 3.48 20 4.6875V15.3125C20 15.8927 19.7695 16.4491 19.3593 16.8593C18.9491 17.2695 18.3927 17.5 17.8125 17.5H2.1875C1.60734 17.5 1.05094 17.2695 0.640704 16.8593C0.230468 16.4491 0 15.8927 0 15.3125L0 4.6875C0 3.48 0.98 2.5 2.1875 2.5ZM1.875 15.3138C1.875 15.4863 2.015 15.6263 2.1875 15.6263H17.8125C17.8954 15.6263 17.9749 15.5933 18.0335 15.5347C18.0921 15.4761 18.125 15.3966 18.125 15.3138V7.26125L10.475 11.7463C10.331 11.8309 10.167 11.8755 10 11.8755C9.83298 11.8755 9.66899 11.8309 9.525 11.7463L1.875 7.26125V15.3138ZM18.125 5.0875V4.6875C18.125 4.60462 18.0921 4.52513 18.0335 4.46653C17.9749 4.40792 17.8954 4.375 17.8125 4.375H2.1875C2.10462 4.375 2.02513 4.40792 1.96653 4.46653C1.90792 4.52513 1.875 4.60462 1.875 4.6875V5.0875L10 9.85L18.125 5.0875Z" fill="white"/>
</svg>
