<svg width="20" height="20" viewBox="0 0 20 20" fill="none" xmlns="http://www.w3.org/2000/svg">
<path d="M14.0416 0H5.95743C4.37781 0.00185632 2.86345 0.630245 1.74659 1.74729C0.629725 2.86434 0.00159073 4.37882 0 5.95843L0 14.0426C0.00185632 15.6222 0.630245 17.1366 1.74729 18.2534C2.86434 19.3703 4.37882 19.9984 5.95843 20H14.0426C15.6222 19.9981 17.1366 19.3698 18.2534 18.2527C19.3703 17.1357 19.9984 15.6212 20 14.0416V5.95743C19.9981 4.37781 19.3698 2.86345 18.2527 1.74659C17.1357 0.629725 15.6212 0.00159073 14.0416 0ZM17.9885 14.0416C17.9885 14.5599 17.8864 15.0731 17.688 15.552C17.4897 16.0308 17.199 16.466 16.8325 16.8325C16.466 17.199 16.0308 17.4897 15.552 17.688C15.0731 17.8864 14.5599 17.9885 14.0416 17.9885H5.95743C4.91081 17.9882 3.90716 17.5723 3.16719 16.8321C2.42722 16.0919 2.01152 15.0882 2.01152 14.0416V5.95743C2.01179 4.91081 2.42774 3.90716 3.1679 3.16719C3.90806 2.42722 4.91182 2.01152 5.95843 2.01152H14.0426C15.0892 2.01179 16.0928 2.42774 16.8328 3.1679C17.5728 3.90806 17.9885 4.91182 17.9885 5.95843V14.0416Z" fill="white"/>
<path d="M9.99942 4.82739C8.62845 4.82951 7.31425 5.37514 6.34492 6.34465C5.37559 7.31417 4.83022 8.62847 4.82837 9.99944C4.82996 11.3708 5.37535 12.6855 6.34492 13.6552C7.3145 14.625 8.6291 15.1706 10.0004 15.1725C11.3719 15.1709 12.6868 14.6254 13.6566 13.6556C14.6264 12.6858 15.1719 11.3709 15.1735 9.99944C15.1714 8.62813 14.6255 7.31363 13.6555 6.34424C12.6856 5.37485 11.3707 4.82972 9.99942 4.82839V4.82739ZM9.99942 13.161C9.16119 13.161 8.3573 12.828 7.76459 12.2353C7.17187 11.6426 6.83889 10.8387 6.83889 10.0004C6.83889 9.16222 7.17187 8.35833 7.76459 7.76561C8.3573 7.1729 9.16119 6.83991 9.99942 6.83991C10.8376 6.83991 11.6415 7.1729 12.2343 7.76561C12.827 8.35833 13.1599 9.16222 13.1599 10.0004C13.1599 10.8387 12.827 11.6426 12.2343 12.2353C11.6415 12.828 10.8376 13.161 9.99942 13.161Z" fill="white"/>
<path d="M15.1825 6.10578C15.8669 6.10578 16.4217 5.55098 16.4217 4.86661C16.4217 4.18224 15.8669 3.62744 15.1825 3.62744C14.4982 3.62744 13.9434 4.18224 13.9434 4.86661C13.9434 5.55098 14.4982 6.10578 15.1825 6.10578Z" fill="white"/>
</svg>
