<svg width="188" height="141" viewBox="0 0 188 141" fill="none" xmlns="http://www.w3.org/2000/svg">
<path d="M38.2729 38V9.53448H44.2913V33.038H56.4948V38H38.2729ZM60.3691 38V16.6509H66.2902V38H60.3691ZM63.3436 13.8988C62.4633 13.8988 61.7081 13.6069 61.078 13.0232C60.4572 12.4301 60.1468 11.7213 60.1468 10.8966C60.1468 10.0812 60.4572 9.38159 61.078 8.79782C61.7081 8.20479 62.4633 7.90827 63.3436 7.90827C64.2239 7.90827 64.9744 8.20479 65.5952 8.79782C66.2253 9.38159 66.5404 10.0812 66.5404 10.8966C66.5404 11.7213 66.2253 12.4301 65.5952 13.0232C64.9744 13.6069 64.2239 13.8988 63.3436 13.8988ZM71.1445 38V9.53448H77.0655V20.2368H77.2462C77.5057 19.6623 77.881 19.0786 78.3721 18.4856C78.8724 17.8833 79.5211 17.3829 80.3179 16.9844C81.1241 16.5767 82.1248 16.3729 83.3202 16.3729C84.8769 16.3729 86.3131 16.7806 87.6289 17.596C88.9447 18.4022 89.9964 19.6207 90.784 21.2515C91.5716 22.8731 91.9655 24.907 91.9655 27.3532C91.9655 29.7346 91.5809 31.7454 90.8118 33.3855C90.052 35.0163 89.0142 36.2533 87.6984 37.0966C86.3919 37.9305 84.9278 38.3475 83.3063 38.3475C82.1573 38.3475 81.1797 38.1575 80.3735 37.7776C79.5767 37.3977 78.9234 36.9205 78.4138 36.346C77.9041 35.7622 77.5149 35.1738 77.2462 34.5808H76.9821V38H71.1445ZM76.9404 27.3254C76.9404 28.5949 77.1165 29.7022 77.4686 30.6473C77.8207 31.5925 78.3304 32.3291 78.9975 32.8573C79.6647 33.3762 80.4755 33.6357 81.4299 33.6357C82.3936 33.6357 83.209 33.3716 83.8761 32.8434C84.5433 32.306 85.0483 31.5647 85.3911 30.6195C85.7433 29.6651 85.9193 28.5671 85.9193 27.3254C85.9193 26.093 85.7479 25.0089 85.405 24.073C85.0622 23.1371 84.5572 22.4051 83.89 21.877C83.2229 21.3488 82.4028 21.0847 81.4299 21.0847C80.4662 21.0847 79.6508 21.3395 78.9836 21.8492C78.3257 22.3588 77.8207 23.0815 77.4686 24.0174C77.1165 24.9533 76.9404 26.056 76.9404 27.3254ZM105.646 38.417C103.45 38.417 101.559 37.9722 99.9749 37.0827C98.3996 36.1838 97.1858 34.9144 96.3333 33.2743C95.4808 31.6249 95.0545 29.6744 95.0545 27.4227C95.0545 25.2267 95.4808 23.2993 96.3333 21.6407C97.1858 19.982 98.3857 18.6894 99.9332 17.7628C101.49 16.8362 103.315 16.3729 105.409 16.3729C106.818 16.3729 108.129 16.5999 109.343 17.0539C110.566 17.4987 111.632 18.1705 112.54 19.0693C113.457 19.9681 114.171 21.0986 114.68 22.4607C115.19 23.8136 115.445 25.3981 115.445 27.2142V28.8404H97.4174V25.1711H109.871C109.871 24.3186 109.686 23.5634 109.315 22.9055C108.944 22.2476 108.43 21.7333 107.772 21.3627C107.124 20.9828 106.368 20.7928 105.507 20.7928C104.608 20.7928 103.811 21.0013 103.116 21.4183C102.43 21.826 101.893 22.3773 101.504 23.0723C101.115 23.758 100.915 24.5224 100.906 25.3656V28.8543C100.906 29.9107 101.101 30.8234 101.49 31.5925C101.888 32.3616 102.449 32.9546 103.172 33.3716C103.894 33.7885 104.752 33.997 105.743 33.997C106.401 33.997 107.003 33.9044 107.55 33.7191C108.097 33.5337 108.565 33.2557 108.954 32.8851C109.343 32.5145 109.639 32.0604 109.843 31.523L115.32 31.8844C115.042 33.2001 114.472 34.3491 113.61 35.3314C112.757 36.3043 111.655 37.0641 110.302 37.6108C108.958 38.1483 107.406 38.417 105.646 38.417ZM119.309 38V16.6509H125.049V20.3758H125.271C125.661 19.0508 126.314 18.05 127.231 17.3736C128.148 16.6879 129.205 16.3451 130.4 16.3451C130.697 16.3451 131.016 16.3636 131.359 16.4007C131.702 16.4377 132.003 16.4887 132.263 16.5536V21.8075C131.985 21.7241 131.6 21.6499 131.109 21.5851C130.618 21.5202 130.169 21.4878 129.761 21.4878C128.89 21.4878 128.111 21.6777 127.426 22.0576C126.749 22.4283 126.212 22.9472 125.813 23.6143C125.424 24.2815 125.23 25.0506 125.23 25.9216V38H119.309ZM144.06 38.417C141.864 38.417 139.973 37.9722 138.389 37.0827C136.813 36.1838 135.6 34.9144 134.747 33.2743C133.895 31.6249 133.468 29.6744 133.468 27.4227C133.468 25.2267 133.895 23.2993 134.747 21.6407C135.6 19.982 136.8 18.6894 138.347 17.7628C139.904 16.8362 141.729 16.3729 143.823 16.3729C145.232 16.3729 146.543 16.5999 147.757 17.0539C148.98 17.4987 150.045 18.1705 150.954 19.0693C151.871 19.9681 152.584 21.0986 153.094 22.4607C153.604 23.8136 153.859 25.3981 153.859 27.2142V28.8404H135.831V25.1711H148.285C148.285 24.3186 148.1 23.5634 147.729 22.9055C147.358 22.2476 146.844 21.7333 146.186 21.3627C145.538 20.9828 144.782 20.7928 143.921 20.7928C143.022 20.7928 142.225 21.0013 141.53 21.4183C140.844 21.826 140.307 22.3773 139.918 23.0723C139.528 23.758 139.329 24.5224 139.32 25.3656V28.8543C139.32 29.9107 139.515 30.8234 139.904 31.5925C140.302 32.3616 140.863 32.9546 141.586 33.3716C142.308 33.7885 143.165 33.997 144.157 33.997C144.815 33.997 145.417 33.9044 145.964 33.7191C146.51 33.5337 146.978 33.2557 147.368 32.8851C147.757 32.5145 148.053 32.0604 148.257 31.523L153.733 31.8844C153.455 33.2001 152.886 34.3491 152.024 35.3314C151.171 36.3043 150.069 37.0641 148.716 37.6108C147.372 38.1483 145.82 38.417 144.06 38.417ZM167.369 38.417C165.182 38.417 163.301 37.9537 161.725 37.0271C160.159 36.0912 158.955 34.7939 158.112 33.1353C157.278 31.4767 156.861 29.5678 156.861 27.4088C156.861 25.222 157.282 23.3039 158.126 21.6546C158.978 19.9959 160.187 18.7033 161.753 17.7767C163.319 16.8408 165.182 16.3729 167.341 16.3729C169.203 16.3729 170.834 16.7111 172.233 17.3875C173.632 18.0639 174.74 19.0137 175.555 20.2368C176.371 21.46 176.82 22.8962 176.903 24.5456H171.316C171.158 23.48 170.741 22.6229 170.065 21.9742C169.398 21.3164 168.522 20.9874 167.438 20.9874C166.521 20.9874 165.719 21.2376 165.033 21.738C164.357 22.2291 163.829 22.9472 163.449 23.8923C163.069 24.8375 162.879 25.9818 162.879 27.3254C162.879 28.6875 163.064 29.8458 163.435 30.8002C163.815 31.7546 164.348 32.482 165.033 32.9824C165.719 33.4828 166.521 33.733 167.438 33.733C168.114 33.733 168.721 33.594 169.259 33.316C169.805 33.038 170.255 32.6349 170.607 32.1067C170.968 31.5693 171.205 30.9253 171.316 30.1748H176.903C176.811 31.8056 176.366 33.2418 175.569 34.4835C174.781 35.7159 173.693 36.6796 172.303 37.3745C170.913 38.0695 169.268 38.417 167.369 38.417ZM38.2729 85V56.5345H57.1202V61.4965H44.2913V68.2793H55.8693V73.2413H44.2913V85H38.2729ZM61.0572 85V63.6509H66.9782V85H61.0572ZM64.0316 60.8988C63.1513 60.8988 62.3961 60.6069 61.766 60.0232C61.1452 59.4301 60.8348 58.7213 60.8348 57.8966C60.8348 57.0812 61.1452 56.3816 61.766 55.7978C62.3961 55.2048 63.1513 54.9083 64.0316 54.9083C64.9119 54.9083 65.6624 55.2048 66.2832 55.7978C66.9133 56.3816 67.2284 57.0812 67.2284 57.8966C67.2284 58.7213 66.9133 59.4301 66.2832 60.0232C65.6624 60.6069 64.9119 60.8988 64.0316 60.8988ZM77.6424 56.5345V85H71.7213V56.5345H77.6424ZM82.3854 85V63.6509H88.0285V67.4175H88.2787C88.7235 66.1666 89.4648 65.1798 90.5026 64.457C91.5404 63.7343 92.782 63.3729 94.2275 63.3729C95.6916 63.3729 96.9379 63.7389 97.9664 64.4709C98.995 65.1937 99.6807 66.1759 100.024 67.4175H100.246C100.681 66.1944 101.469 65.2168 102.609 64.4848C103.758 63.7435 105.115 63.3729 106.681 63.3729C108.673 63.3729 110.29 64.0076 111.532 65.2771C112.783 66.5373 113.408 68.3256 113.408 70.6421V85H107.501V71.8097C107.501 70.6236 107.186 69.7341 106.556 69.141C105.926 68.548 105.138 68.2515 104.193 68.2515C103.118 68.2515 102.28 68.5943 101.678 69.28C101.075 69.9565 100.774 70.8506 100.774 71.9626V85H95.0337V71.6846C95.0337 70.6375 94.7326 69.8036 94.1303 69.1827C93.5372 68.5619 92.7542 68.2515 91.7813 68.2515C91.1234 68.2515 90.5304 68.4183 90.0022 68.7519C89.4833 69.0762 89.071 69.5348 88.7652 70.1279C88.4594 70.7116 88.3065 71.3973 88.3065 72.185V85H82.3854ZM64.4312 117.767C64.4312 120.871 63.8428 123.512 62.666 125.69C61.4985 127.867 59.9047 129.531 57.8847 130.68C55.8739 131.819 53.613 132.389 51.1019 132.389C48.5722 132.389 46.302 131.815 44.2913 130.666C42.2805 129.517 40.6914 127.853 39.5239 125.676C38.3563 123.498 37.7726 120.862 37.7726 117.767C37.7726 114.663 38.3563 112.022 39.5239 109.845C40.6914 107.667 42.2805 106.009 44.2913 104.869C46.302 103.72 48.5722 103.145 51.1019 103.145C53.613 103.145 55.8739 103.72 57.8847 104.869C59.9047 106.009 61.4985 107.667 62.666 109.845C63.8428 112.022 64.4312 114.663 64.4312 117.767ZM58.3294 117.767C58.3294 115.756 58.0283 114.061 57.426 112.68C56.833 111.299 55.9944 110.252 54.9102 109.539C53.8261 108.825 52.5566 108.469 51.1019 108.469C49.6471 108.469 48.3776 108.825 47.2935 109.539C46.2094 110.252 45.3661 111.299 44.7638 112.68C44.1708 114.061 43.8743 115.756 43.8743 117.767C43.8743 119.778 44.1708 121.474 44.7638 122.854C45.3661 124.235 46.2094 125.282 47.2935 125.996C48.3776 126.709 49.6471 127.066 51.1019 127.066C52.5566 127.066 53.8261 126.709 54.9102 125.996C55.9944 125.282 56.833 124.235 57.426 122.854C58.0283 121.474 58.3294 119.778 58.3294 117.767ZM80.2589 110.651V115.099H67.0824V110.651H80.2589ZM70.0986 132V109.108C70.0986 107.561 70.3997 106.277 71.002 105.258C71.6136 104.239 72.4475 103.474 73.5039 102.965C74.5602 102.455 75.7602 102.2 77.1038 102.2C78.0118 102.2 78.8412 102.27 79.5917 102.409C80.3515 102.548 80.9168 102.673 81.2874 102.784L80.2311 107.232C79.9994 107.158 79.7122 107.088 79.3693 107.023C79.0357 106.958 78.6929 106.926 78.3408 106.926C77.4698 106.926 76.8628 107.13 76.52 107.537C76.1771 107.936 76.0057 108.496 76.0057 109.219V132H70.0986ZM95.3569 110.651V115.099H82.1804V110.651H95.3569ZM85.1966 132V109.108C85.1966 107.561 85.4977 106.277 86.1 105.258C86.7116 104.239 87.5455 103.474 88.6019 102.965C89.6582 102.455 90.8582 102.2 92.2017 102.2C93.1098 102.2 93.9391 102.27 94.6897 102.409C95.4495 102.548 96.0147 102.673 96.3854 102.784L95.3291 107.232C95.0974 107.158 94.8102 107.088 94.4673 107.023C94.1337 106.958 93.7909 106.926 93.4388 106.926C92.5678 106.926 91.9608 107.13 91.618 107.537C91.2751 107.936 91.1037 108.496 91.1037 109.219V132H85.1966ZM98.9741 132V110.651H104.895V132H98.9741ZM101.949 107.899C101.068 107.899 100.313 107.607 99.683 107.023C99.0621 106.43 98.7517 105.721 98.7517 104.897C98.7517 104.081 99.0621 103.382 99.683 102.798C100.313 102.205 101.068 101.908 101.949 101.908C102.829 101.908 103.579 102.205 104.2 102.798C104.83 103.382 105.145 104.081 105.145 104.897C105.145 105.721 104.83 106.43 104.2 107.023C103.579 107.607 102.829 107.899 101.949 107.899ZM119.284 132.417C117.097 132.417 115.216 131.954 113.641 131.027C112.075 130.091 110.871 128.794 110.027 127.135C109.193 125.477 108.777 123.568 108.777 121.409C108.777 119.222 109.198 117.304 110.041 115.655C110.894 113.996 112.103 112.703 113.669 111.777C115.235 110.841 117.097 110.373 119.256 110.373C121.119 110.373 122.75 110.711 124.149 111.388C125.548 112.064 126.655 113.014 127.471 114.237C128.286 115.46 128.736 116.896 128.819 118.546H123.232C123.074 117.48 122.657 116.623 121.981 115.974C121.314 115.316 120.438 114.987 119.354 114.987C118.436 114.987 117.635 115.238 116.949 115.738C116.273 116.229 115.745 116.947 115.365 117.892C114.985 118.837 114.795 119.982 114.795 121.325C114.795 122.688 114.98 123.846 115.351 124.8C115.731 125.755 116.264 126.482 116.949 126.982C117.635 127.483 118.436 127.733 119.354 127.733C120.03 127.733 120.637 127.594 121.175 127.316C121.721 127.038 122.171 126.635 122.523 126.107C122.884 125.569 123.12 124.925 123.232 124.175H128.819C128.726 125.806 128.282 127.242 127.485 128.484C126.697 129.716 125.608 130.68 124.219 131.375C122.829 132.069 121.184 132.417 119.284 132.417ZM142.34 132.417C140.143 132.417 138.253 131.972 136.669 131.083C135.093 130.184 133.88 128.914 133.027 127.274C132.175 125.625 131.748 123.674 131.748 121.423C131.748 119.227 132.175 117.299 133.027 115.641C133.88 113.982 135.08 112.689 136.627 111.763C138.184 110.836 140.009 110.373 142.103 110.373C143.512 110.373 144.823 110.6 146.037 111.054C147.26 111.499 148.325 112.171 149.234 113.069C150.151 113.968 150.864 115.099 151.374 116.461C151.884 117.814 152.138 119.398 152.138 121.214V122.84H134.111V119.171H146.565C146.565 118.319 146.38 117.563 146.009 116.905C145.638 116.248 145.124 115.733 144.466 115.363C143.818 114.983 143.062 114.793 142.201 114.793C141.302 114.793 140.505 115.001 139.81 115.418C139.124 115.826 138.587 116.377 138.198 117.072C137.808 117.758 137.609 118.522 137.6 119.366V122.854C137.6 123.911 137.795 124.823 138.184 125.592C138.582 126.362 139.143 126.955 139.866 127.372C140.588 127.789 141.445 127.997 142.437 127.997C143.095 127.997 143.697 127.904 144.244 127.719C144.79 127.534 145.258 127.256 145.648 126.885C146.037 126.514 146.333 126.06 146.537 125.523L152.013 125.884C151.735 127.2 151.166 128.349 150.304 129.331C149.451 130.304 148.349 131.064 146.996 131.611C145.652 132.148 144.1 132.417 142.34 132.417Z" fill="white"/>
<path fill-rule="evenodd" clip-rule="evenodd" d="M12.4778 12.5303L11.2602 14.9188L11.2631 14.9243L-2.09808e-05 37.0222H3.66088L13.1011 18.5007L22.6197 37.0222H26.2869L14.9271 14.9181L14.9277 14.917L13.701 12.5303H12.4778Z" fill="white"/>
</svg>
