<svg width="20" height="20" viewBox="0 0 20 20" fill="none" xmlns="http://www.w3.org/2000/svg">
<path d="M8.25 0H7.125L6.375 2.875L5.625 0H4.375C4.625 0.75 4.875 1.375 5.125 2.125C5.5 3.125 5.75 4 5.75 4.5V7.5H6.875V4.5L8.25 0ZM11.25 5.625V3.75C11.25 3.125 11.125 2.75 10.875 2.375C10.625 2 10.25 1.875 9.75 1.875C9.25 1.875 8.875 2.125 8.625 2.5C8.375 2.75 8.25 3.125 8.25 3.75V5.75C8.25 6.375 8.375 6.75 8.625 7C8.875 7.375 9.25 7.5 9.75 7.5C10.25 7.5 10.625 7.25 10.875 6.875C11.125 6.75 11.25 6.25 11.25 5.625ZM10.25 5.875C10.25 6.375 10.125 6.625 9.75 6.625C9.375 6.625 9.25 6.375 9.25 5.875V3.5C9.25 3 9.375 2.75 9.75 2.75C10.125 2.75 10.25 3 10.25 3.5V5.875ZM15 7.5V1.875H14V6.125C13.75 6.5 13.625 6.625 13.375 6.625C13.25 6.625 13.125 6.5 13.125 6.375V1.875H12.125V6.25C12.125 6.625 12.125 6.875 12.25 7.125C12.25 7.375 12.5 7.5 12.875 7.5C13.25 7.5 13.625 7.25 14 6.875V7.5H15ZM15.5 13.125C15.125 13.125 15 13.375 15 13.875V14.375H16V13.875C16 13.375 15.875 13.125 15.5 13.125ZM11.875 13.125C11.75 13.125 11.5 13.25 11.375 13.375V16.75C11.5 16.875 11.75 17 11.875 17C12.125 17 12.25 16.75 12.25 16.25V13.875C12.25 13.375 12.125 13.125 11.875 13.125Z" fill="white"/>
<path d="M18 10.375C17.75 9.5 17 8.75 16.25 8.75C14.25 8.5 12.125 8.5 10 8.5C7.875 8.5 5.875 8.5 3.75 8.75C3 8.75 2.25 9.5 2 10.375C1.75 11.625 1.75 13 1.75 14.25C1.75 15.5 1.75 16.875 2 18.125C2.25 19 2.875 19.625 3.75 19.75C5.875 20 7.875 20 10 20C12.125 20 14.125 20 16.25 19.75C17.125 19.625 17.875 19 18 18.125C18.25 16.875 18.25 15.5 18.25 14.25C18.25 13 18.25 11.625 18 10.375ZM6.5 11.5H5.25V17.875H4.125V11.5H3V10.375H6.5V11.5ZM9.5 17.875H8.5V17.25C8.125 17.75 7.75 17.875 7.375 17.875C7 17.875 6.875 17.75 6.75 17.5C6.75 17.375 6.625 17.125 6.625 16.625V12.25H7.625V16.625C7.625 16.75 7.75 16.875 7.875 16.875C8.125 16.875 8.25 16.75 8.5 16.375V12.25H9.5V17.875ZM13.25 16.125C13.25 16.625 13.25 17 13.125 17.25C13 17.625 12.75 17.875 12.375 17.875C12 17.875 11.625 17.625 11.375 17.25V17.75H10.375V10.375H11.375V12.75C11.75 12.375 12 12.125 12.375 12.125C12.75 12.125 13 12.375 13.125 12.75C13.25 13 13.25 13.375 13.25 13.875V16.125ZM17 15.25H15V16.25C15 16.75 15.125 17 15.5 17C15.75 17 15.875 16.875 16 16.625V16H17V16.75C17 17 16.875 17.125 16.75 17.375C16.5 17.75 16.125 18 15.5 18C15 18 14.625 17.75 14.25 17.375C14 17.125 13.875 16.625 13.875 16.125V14.25C13.875 13.625 14 13.25 14.125 13C14.375 12.625 14.75 12.375 15.375 12.375C15.875 12.375 16.25 12.625 16.5 13C16.75 13.25 16.75 13.75 16.75 14.25V15.25H17Z" fill="white"/>
</svg>
